<?xml version="1.0" encoding="utf-8"?>
<!-- Generator: Adobe Illustrator 25.4.8, SVG Export Plug-In . SVG Version: 6.00 Build 0)  -->
<svg version="1.1" id="Layer_1" xmlns="http://www.w3.org/2000/svg" xmlns:xlink="http://www.w3.org/1999/xlink" x="0px" y="0px"
	 viewBox="0 0 551.1 118.1" style="enable-background:new 0 0 551.1 118.1;" xml:space="preserve">
<style type="text/css">
	.st0{fill:#D7DF23;stroke:#000000;stroke-width:2.6101;stroke-miterlimit:10;}
	.st1{fill:#D7DF23;stroke:#000000;stroke-width:1.9576;stroke-miterlimit:10;}
	.st2{fill:#5BCAEB;}
	.st3{fill:none;stroke:#000000;stroke-width:5.2203;stroke-miterlimit:10;}
	.st4{fill:#ED1C24;stroke:#000000;stroke-width:1.3051;stroke-miterlimit:10;}
	.st5{fill:#ED1C24;stroke:#000000;stroke-width:0.9788;stroke-miterlimit:10;}
</style>
<g>
	<g>
		<path class="st0" d="M183.2,25.1h44.7c7.5,0,13.2,1.6,17.2,4.8c4,3.2,6,7.2,6,12c0,4-1.4,7.4-4.3,10.3c-1.9,1.9-4.7,3.4-8.3,4.5
			c5.6,1.2,9.6,3.2,12.3,6c2.6,2.8,3.9,6.4,3.9,10.7c0,3.5-0.9,6.7-2.8,9.5c-1.9,2.8-4.4,5-7.6,6.6c-2,1-5,1.8-9.1,2.2
			c-5.4,0.6-8.9,0.9-10.7,0.9h-41.2V25.1z M207.3,51.6h10.4c3.7,0,6.3-0.6,7.8-1.7c1.5-1.1,2.2-2.7,2.2-4.9c0-2-0.7-3.5-2.2-4.6
			c-1.5-1.1-4-1.7-7.6-1.7h-10.5V51.6z M207.3,78.2h12.2c4.1,0,7-0.6,8.7-1.9c1.7-1.3,2.5-3,2.5-5.1c0-2-0.8-3.6-2.5-4.8
			c-1.7-1.2-4.6-1.8-8.8-1.8h-12.1V78.2z"/>
		<path class="st0" d="M263.1,68.3c0-7.5,2.9-13.6,8.6-18.5c5.8-4.8,13.6-7.3,23.4-7.3c11.2,0,19.7,2.8,25.4,8.5
			c4.6,4.6,6.9,10.2,6.9,16.9c0,7.5-2.9,13.7-8.6,18.5c-5.7,4.8-13.6,7.2-23.7,7.2c-9,0-16.3-2-21.8-6
			C266.5,82.9,263.1,76.4,263.1,68.3z M284.6,68.3c0,4.4,1,7.6,3,9.7c2,2.1,4.6,3.1,7.6,3.1c3.1,0,5.6-1,7.6-3.1c2-2.1,3-5.4,3-9.9
			c0-4.2-1-7.4-3-9.5c-2-2.1-4.5-3.1-7.4-3.1c-3.1,0-5.7,1.1-7.8,3.2C285.6,60.8,284.6,64,284.6,68.3z"/>
		<path class="st0" d="M337.8,43.7h20v8c3-3.3,6-5.6,9.1-7c3.1-1.4,6.8-2.1,11.2-2.1c5.9,0,10.6,1.5,13.9,4.6c3.4,3.1,5,7.9,5,14.3
			v31.1h-21.6V65.8c0-3.1-0.7-5.3-2-6.5c-1.3-1.3-3.1-1.9-5.5-1.9c-2.6,0-4.7,0.9-6.3,2.6c-1.6,1.7-2.4,4.8-2.4,9.3v23.5h-21.5V43.7
			z"/>
		<path class="st0" d="M406,79.1l21.3-1.8c0.9,2.2,2.1,3.8,3.7,4.8c1.6,1,3.7,1.4,6.3,1.4c2.9,0,5.1-0.5,6.7-1.6
			c1.2-0.8,1.8-1.8,1.8-3c0-1.4-0.8-2.4-2.4-3.1c-1.2-0.5-4.2-1.2-9.2-1.9c-7.5-1.1-12.6-2.2-15.5-3.2c-2.9-1-5.3-2.6-7.3-4.9
			c-2-2.3-3-4.9-3-7.9c0-3.2,1.1-6,3.2-8.3c2.1-2.3,5.1-4.1,8.9-5.2c3.8-1.2,8.8-1.7,15.1-1.7c6.7,0,11.6,0.4,14.8,1.3
			c3.2,0.9,5.8,2.3,8,4.2c2.1,1.9,3.9,4.4,5.3,7.6l-20.4,1.8c-0.5-1.6-1.4-2.7-2.6-3.5c-1.7-1-3.7-1.5-6.1-1.5
			c-2.4,0-4.2,0.4-5.3,1.1c-1.1,0.8-1.7,1.7-1.7,2.7c0,1.2,0.7,2.1,2.1,2.7c1.4,0.6,4.5,1.2,9.2,1.7c7.1,0.7,12.4,1.7,15.9,2.9
			c3.5,1.3,6.1,3.1,8,5.4c1.8,2.3,2.8,4.9,2.8,7.7c0,2.8-1,5.6-2.9,8.2c-2,2.7-5,4.8-9.2,6.4c-4.2,1.6-9.9,2.4-17.2,2.4
			c-10.2,0-17.5-1.3-21.9-3.8C410,87.4,407.2,83.8,406,79.1z"/>
		<path class="st0" d="M495.3,59.6l-20.5-1.9c0.8-3.1,1.9-5.6,3.3-7.4c1.5-1.8,3.6-3.4,6.3-4.7c2-1,4.7-1.7,8.1-2.2
			c3.4-0.5,7.2-0.8,11.2-0.8c6.4,0,11.6,0.3,15.5,0.9c3.9,0.6,7.2,1.9,9.8,3.9c1.8,1.4,3.3,3.3,4.3,5.9c1.1,2.5,1.6,5,1.6,7.3v21.6
			c0,2.3,0.2,4.1,0.5,5.4c0.3,1.3,1.1,3,2.2,5h-20.1c-0.8-1.3-1.3-2.2-1.6-2.9c-0.2-0.7-0.5-1.7-0.7-3.1c-2.8,2.4-5.6,4.1-8.4,5.1
			c-3.8,1.4-8.2,2-13.2,2c-6.7,0-11.8-1.4-15.2-4.1c-3.5-2.7-5.2-6-5.2-10c0-3.7,1.2-6.8,3.7-9.2c2.5-2.4,7.1-4.2,13.8-5.4
			c8.1-1.4,13.3-2.4,15.7-3c2.4-0.6,4.9-1.3,7.6-2.2c0-2.3-0.5-3.9-1.6-4.8c-1.1-0.9-3-1.4-5.7-1.4c-3.5,0-6.2,0.5-7.9,1.5
			C497.3,56,496.2,57.5,495.3,59.6z M513.9,69.4c-3,0.9-6,1.7-9.2,2.4c-4.4,1-7.1,2-8.3,3c-1.2,1-1.8,2.2-1.8,3.5
			c0,1.5,0.6,2.7,1.8,3.6c1.2,0.9,2.9,1.4,5.2,1.4c2.4,0,4.6-0.5,6.7-1.5c2.1-1,3.5-2.3,4.4-3.7c0.9-1.5,1.3-3.4,1.3-5.7V69.4z"/>
		<polygon class="st1" points="271.6,29 295.3,25 318.9,29 317.7,35.8 295.3,32 272.9,35.8 		"/>
	</g>
	<g>
		<g>
			<path class="st2" d="M161.8,91.4c0,7.2-5.9,13.1-13.1,13.1H28.7c-7.2,0-13.1-5.9-13.1-13.1V27.6c0-7.2,5.9-13.1,13.1-13.1h120.1
				c7.2,0,13.1,5.9,13.1,13.1V91.4z"/>
			<path class="st3" d="M161.8,91.4c0,7.2-5.9,13.1-13.1,13.1H28.7c-7.2,0-13.1-5.9-13.1-13.1V27.6c0-7.2,5.9-13.1,13.1-13.1h120.1
				c7.2,0,13.1,5.9,13.1,13.1V91.4z"/>
		</g>
		<g>
			<path class="st4" d="M40.1,88L29.9,36.1c0,0,26.7-9,32-2.8s-16,29.4-16,29.4l-1.8,20.3L40.1,88z"/>
			<path class="st4" d="M69,22.8l5,66.7h5.6c0,0-0.6-20.8,5-24c5.6-3.2,22.5,29.3,22.5,29.3h8.1c0,0-20-34.2-23.1-36
				C89,57.1,79,61.7,79,61.7L69,22.8z"/>
			<path class="st4" d="M112.3,63.4c15.9-4.9,31.2-9.4,34.6-5.8s1.1,25.1-11.9,23.7s-25-2.7-25.5-7.2S112.3,63.4,112.3,63.4z"/>
			<path class="st5" d="M137.9,54.1c4.8-5.4,10.5-12.7,10.5-8.9s-4,6.6-5.2,7.3S137.9,54.1,137.9,54.1z"/>
			<path class="st5" d="M122.2,27c0,0,13.7,5.4,12.8,9.9c-0.9,4.5-12.3,6.7-9.8,10.7c2.6,4,2.6,4,2.6,4s-7.9-5-7-6.5
				c0.9-1.5,9.2-5.1,10.4-6c2.3-1.6,0.6-3.5-1.3-5.4C128,31.9,122.2,27,122.2,27z"/>
		</g>
	</g>
</g>
</svg>
